# xmcd
#
# Track frame offsets:
#	150
#	10815
#	22918
#	35035
#	47249
#	65629
#	81609
#	95397
#	110585
#	129334
#	142829
#	155997
#
# Disc length: 2240 seconds
#
# Revision: 0
# Processed by: cddbd v1.5.2PL0 Copyright (c) Steve Scherf et al.
# Submitted via: EZCDAudioConverter 3.1.7.1
#
DISCID=a308be0c
DTITLE=Tuomari Nurmio and Folk-Liisa - Ihmemaassa
DYEAR=2016
DGENRE=
TTITLE0=Pieni aurinkoni
TTITLE1=Rakkauden voima
TTITLE2=Kahleet
TTITLE3=Lemmensairas
TTITLE4=Ruusunen
TTITLE5=Kuningas
TTITLE6=Vielä yksi opetus
TTITLE7=Liisa
TTITLE8=Paratiisin puutarha
TTITLE9=Hunajainen kuu
TTITLE10=Tulivuori
TTITLE11=Laulu nro. 99
EXTD=
EXTT0=
EXTT1=
EXTT2=
EXTT3=
EXTT4=
EXTT5=
EXTT6=
EXTT7=
EXTT8=
EXTT9=
EXTT10=
EXTT11=
PLAYORDER=
